<?xml version="1.0" encoding="UTF-8"?>
<svg width="700pt" height="700pt" version="1.1" viewBox="0 0 700 700" xmlns="http://www.w3.org/2000/svg" xmlns:xlink="http://www.w3.org/1999/xlink">
 <defs>
  <symbol id="v" overflow="visible">
   <path d="m18.766-1.125c-0.96875 0.5-1.9805 0.875-3.0312 1.125-1.043 0.25781-2.1367 0.39062-3.2812 0.39062-3.3984 0-6.0898-0.94531-8.0781-2.8438-1.9922-1.9062-2.9844-4.4844-2.9844-7.7344 0-3.2578 0.99219-5.8359 2.9844-7.7344 1.9883-1.9062 4.6797-2.8594 8.0781-2.8594 1.1445 0 2.2383 0.13281 3.2812 0.39062 1.0508 0.25 2.0625 0.625 3.0312 1.125v4.2188c-0.98047-0.65625-1.9453-1.1406-2.8906-1.4531-0.94922-0.3125-1.9492-0.46875-3-0.46875-1.875 0-3.3516 0.60547-4.4219 1.8125-1.0742 1.1992-1.6094 2.8555-1.6094 4.9688 0 2.1055 0.53516 3.7617 1.6094 4.9688 1.0703 1.1992 2.5469 1.7969 4.4219 1.7969 1.0508 0 2.0508-0.14844 3-0.45312 0.94531-0.3125 1.9102-0.80078 2.8906-1.4688z"/>
  </symbol>
  <symbol id="d" overflow="visible">
   <path d="m13.734-11.141c-0.4375-0.19531-0.87109-0.34375-1.2969-0.4375-0.41797-0.10156-0.83984-0.15625-1.2656-0.15625-1.2617 0-2.2305 0.40625-2.9062 1.2188-0.67969 0.80469-1.0156 1.9531-1.0156 3.4531v7.0625h-4.8906v-15.312h4.8906v2.5156c0.625-1 1.3438-1.7266 2.1562-2.1875 0.82031-0.46875 1.8008-0.70312 2.9375-0.70312 0.16406 0 0.34375 0.011719 0.53125 0.03125 0.19531 0.011719 0.47656 0.039062 0.84375 0.078125z"/>
  </symbol>
  <symbol id="a" overflow="visible">
   <path d="m17.641-7.7031v1.4062h-11.453c0.125 1.1484 0.53906 2.0078 1.25 2.5781 0.70703 0.57422 1.7031 0.85938 2.9844 0.85938 1.0312 0 2.082-0.14844 3.1562-0.45312 1.082-0.3125 2.1914-0.77344 3.3281-1.3906v3.7656c-1.1562 0.4375-2.3125 0.76562-3.4688 0.98438-1.1562 0.22656-2.3125 0.34375-3.4688 0.34375-2.7734 0-4.9297-0.70312-6.4688-2.1094-1.5312-1.4062-2.2969-3.3789-2.2969-5.9219 0-2.5 0.75391-4.4609 2.2656-5.8906 1.5078-1.4375 3.582-2.1562 6.2188-2.1562 2.4062 0 4.332 0.73047 5.7812 2.1875 1.4453 1.4492 2.1719 3.3828 2.1719 5.7969zm-5.0312-1.625c0-0.92578-0.27344-1.6719-0.8125-2.2344-0.54297-0.57031-1.25-0.85938-2.125-0.85938-0.94922 0-1.7188 0.26562-2.3125 0.79688s-0.96484 1.2969-1.1094 2.2969z"/>
  </symbol>
  <symbol id="g" overflow="visible">
   <path d="m9.2188-6.8906c-1.0234 0-1.793 0.17188-2.3125 0.51562-0.51172 0.34375-0.76562 0.85547-0.76562 1.5312 0 0.625 0.20703 1.1172 0.625 1.4688 0.41406 0.34375 0.98828 0.51562 1.7188 0.51562 0.92578 0 1.7031-0.32812 2.3281-0.98438 0.63281-0.66406 0.95312-1.4922 0.95312-2.4844v-0.5625zm7.4688-1.8438v8.7344h-4.9219v-2.2656c-0.65625 0.92969-1.3984 1.6055-2.2188 2.0312-0.82422 0.41406-1.8242 0.625-3 0.625-1.5859 0-2.8711-0.45703-3.8594-1.375-0.99219-0.92578-1.4844-2.1289-1.4844-3.6094 0-1.7891 0.61328-3.1016 1.8438-3.9375 1.2383-0.84375 3.1797-1.2656 5.8281-1.2656h2.8906v-0.39062c0-0.76953-0.30859-1.332-0.92188-1.6875-0.61719-0.36328-1.5703-0.54688-2.8594-0.54688-1.0547 0-2.0312 0.10547-2.9375 0.3125-0.89844 0.21094-1.7305 0.52344-2.5 0.9375v-3.7344c1.0391-0.25 2.0859-0.44141 3.1406-0.57812 1.0625-0.13281 2.125-0.20312 3.1875-0.20312 2.7578 0 4.75 0.54688 5.9688 1.6406 1.2266 1.0859 1.8438 2.8555 1.8438 5.3125z"/>
  </symbol>
  <symbol id="c" overflow="visible">
   <path d="m7.7031-19.656v4.3438h5.0469v3.5h-5.0469v6.5c0 0.71094 0.14062 1.1875 0.42188 1.4375s0.83594 0.375 1.6719 0.375h2.5156v3.5h-4.1875c-1.9375 0-3.3125-0.39844-4.125-1.2031-0.80469-0.8125-1.2031-2.1797-1.2031-4.1094v-6.5h-2.4219v-3.5h2.4219v-4.3438z"/>
  </symbol>
  <symbol id="f" overflow="visible">
   <path d="m12.766-13.078v-8.2031h4.9219v21.281h-4.9219v-2.2188c-0.66797 0.90625-1.4062 1.5703-2.2188 1.9844s-1.7578 0.625-2.8281 0.625c-1.8867 0-3.4336-0.75-4.6406-2.25-1.2109-1.5-1.8125-3.4258-1.8125-5.7812 0-2.3633 0.60156-4.2969 1.8125-5.7969 1.207-1.5 2.7539-2.25 4.6406-2.25 1.0625 0 2 0.21484 2.8125 0.64062 0.82031 0.42969 1.5664 1.0859 2.2344 1.9688zm-3.2188 9.9219c1.0391 0 1.8359-0.37891 2.3906-1.1406 0.55078-0.76953 0.82812-1.8828 0.82812-3.3438 0-1.457-0.27734-2.5664-0.82812-3.3281-0.55469-0.76953-1.3516-1.1562-2.3906-1.1562-1.043 0-1.8398 0.38672-2.3906 1.1562-0.55469 0.76172-0.82812 1.8711-0.82812 3.3281 0 1.4609 0.27344 2.5742 0.82812 3.3438 0.55078 0.76172 1.3477 1.1406 2.3906 1.1406z"/>
  </symbol>
  <symbol id="l" overflow="visible">
   <path d="m10.5-3.1562c1.0508 0 1.8516-0.37891 2.4062-1.1406 0.55078-0.76953 0.82812-1.8828 0.82812-3.3438 0-1.457-0.27734-2.5664-0.82812-3.3281-0.55469-0.76953-1.3555-1.1562-2.4062-1.1562-1.0547 0-1.8594 0.38672-2.4219 1.1562-0.55469 0.77344-0.82812 1.8828-0.82812 3.3281 0 1.4492 0.27344 2.5586 0.82812 3.3281 0.5625 0.77344 1.3672 1.1562 2.4219 1.1562zm-3.25-9.9219c0.67578-0.88281 1.4219-1.5391 2.2344-1.9688 0.82031-0.42578 1.7656-0.64062 2.8281-0.64062 1.8945 0 3.4453 0.75 4.6562 2.25 1.207 1.5 1.8125 3.4336 1.8125 5.7969 0 2.3555-0.60547 4.2812-1.8125 5.7812-1.2109 1.5-2.7617 2.25-4.6562 2.25-1.0625 0-2.0078-0.21094-2.8281-0.625-0.8125-0.42578-1.5586-1.0859-2.2344-1.9844v2.2188h-4.8906v-21.281h4.8906z"/>
  </symbol>
  <symbol id="k" overflow="visible">
   <path d="m0.34375-15.312h4.8906l4.125 10.391 3.5-10.391h4.8906l-6.4375 16.766c-0.64844 1.6953-1.4023 2.8828-2.2656 3.5625-0.86719 0.6875-2 1.0312-3.4062 1.0312h-2.8438v-3.2188h1.5312c0.83203 0 1.4375-0.13672 1.8125-0.40625 0.38281-0.26172 0.67969-0.73047 0.89062-1.4062l0.14062-0.42188z"/>
  </symbol>
  <symbol id="j" overflow="visible">
   <path d="m14.953-3.7188h-8.2188l-1.3125 3.7188h-5.2812l7.5625-20.406h6.2656l7.5625 20.406h-5.2812zm-6.9062-3.7812h5.5781l-2.7812-8.125z"/>
  </symbol>
  <symbol id="u" overflow="visible">
   <path d="m2.3594-15.312h4.8906v15.312h-4.8906zm0-5.9688h4.8906v4h-4.8906z"/>
  </symbol>
  <symbol id="e" overflow="visible">
   <path d="m17.75-9.3281v9.3281h-4.9219v-7.1406c0-1.3203-0.03125-2.2344-0.09375-2.7344s-0.16797-0.86719-0.3125-1.1094c-0.1875-0.3125-0.44922-0.55469-0.78125-0.73438-0.32422-0.17578-0.69531-0.26562-1.1094-0.26562-1.0234 0-1.8242 0.39844-2.4062 1.1875-0.58594 0.78125-0.875 1.8711-0.875 3.2656v7.5312h-4.8906v-15.312h4.8906v2.2344c0.73828-0.88281 1.5195-1.5391 2.3438-1.9688 0.83203-0.42578 1.75-0.64062 2.75-0.64062 1.7695 0 3.1133 0.54688 4.0312 1.6406 0.91406 1.0859 1.375 2.6562 1.375 4.7188z"/>
  </symbol>
  <symbol id="t" overflow="visible">
   <path d="m16.781-19.766v4.3125c-1.125-0.5-2.2266-0.875-3.2969-1.125-1.0625-0.25781-2.0703-0.39062-3.0156-0.39062-1.25 0-2.1797 0.17969-2.7812 0.53125-0.60547 0.34375-0.90625 0.88281-0.90625 1.6094 0 0.54297 0.20312 0.96875 0.60938 1.2812 0.40625 0.30469 1.1406 0.5625 2.2031 0.78125l2.25 0.45312c2.2695 0.44922 3.8789 1.1406 4.8281 2.0781 0.95703 0.92969 1.4375 2.2461 1.4375 3.9531 0 2.25-0.66797 3.9297-2 5.0312-1.3359 1.0938-3.3711 1.6406-6.1094 1.6406-1.3047 0-2.6055-0.125-3.9062-0.375-1.3047-0.23828-2.6055-0.59766-3.9062-1.0781v-4.4531c1.3008 0.69922 2.5625 1.2266 3.7812 1.5781 1.2188 0.34375 2.3906 0.51562 3.5156 0.51562 1.1562 0 2.0352-0.1875 2.6406-0.5625 0.61328-0.38281 0.92188-0.9375 0.92188-1.6562 0-0.63281-0.21094-1.125-0.625-1.4688-0.41797-0.34375-1.2461-0.65625-2.4844-0.9375l-2.0312-0.4375c-2.043-0.4375-3.5391-1.1328-4.4844-2.0938-0.9375-0.95703-1.4062-2.25-1.4062-3.875 0-2.0312 0.65625-3.5938 1.9688-4.6875s3.1953-1.6406 5.6562-1.6406c1.125 0 2.2734 0.085938 3.4531 0.25 1.1875 0.16797 2.4141 0.42188 3.6875 0.76562z"/>
  </symbol>
  <symbol id="b" overflow="visible">
   <path d="m9.6406-12.188c-1.0859 0-1.9141 0.39062-2.4844 1.1719-0.57422 0.78125-0.85938 1.9062-0.85938 3.375s0.28516 2.5938 0.85938 3.375c0.57031 0.77344 1.3984 1.1562 2.4844 1.1562 1.0625 0 1.875-0.38281 2.4375-1.1562 0.57031-0.78125 0.85938-1.9062 0.85938-3.375s-0.28906-2.5938-0.85938-3.375c-0.5625-0.78125-1.375-1.1719-2.4375-1.1719zm0-3.5c2.6328 0 4.6914 0.71484 6.1719 2.1406 1.4766 1.418 2.2188 3.3867 2.2188 5.9062 0 2.5117-0.74219 4.4805-2.2188 5.9062-1.4805 1.418-3.5391 2.125-6.1719 2.125-2.6484 0-4.7148-0.70703-6.2031-2.125-1.4922-1.4258-2.2344-3.3945-2.2344-5.9062 0-2.5195 0.74219-4.4883 2.2344-5.9062 1.4883-1.4258 3.5547-2.1406 6.2031-2.1406z"/>
  </symbol>
  <symbol id="i" overflow="visible">
   <path d="m17.75-9.3281v9.3281h-4.9219v-7.1094c0-1.3438-0.03125-2.2656-0.09375-2.7656s-0.16797-0.86719-0.3125-1.1094c-0.1875-0.3125-0.44922-0.55469-0.78125-0.73438-0.32422-0.17578-0.69531-0.26562-1.1094-0.26562-1.0234 0-1.8242 0.39844-2.4062 1.1875-0.58594 0.78125-0.875 1.8711-0.875 3.2656v7.5312h-4.8906v-21.281h4.8906v8.2031c0.73828-0.88281 1.5195-1.5391 2.3438-1.9688 0.83203-0.42578 1.75-0.64062 2.75-0.64062 1.7695 0 3.1133 0.54688 4.0312 1.6406 0.91406 1.0859 1.375 2.6562 1.375 4.7188z"/>
  </symbol>
  <symbol id="h" overflow="visible">
   <path d="m2.1875-5.9688v-9.3438h4.9219v1.5312c0 0.83594-0.007813 1.875-0.015625 3.125-0.011719 1.25-0.015625 2.0859-0.015625 2.5 0 1.2422 0.03125 2.1328 0.09375 2.6719 0.070313 0.54297 0.17969 0.93359 0.32812 1.1719 0.20703 0.32422 0.47266 0.57422 0.79688 0.75 0.32031 0.16797 0.69141 0.25 1.1094 0.25 1.0195 0 1.8203-0.39062 2.4062-1.1719 0.58203-0.78125 0.875-1.8672 0.875-3.2656v-7.5625h4.8906v15.312h-4.8906v-2.2188c-0.74219 0.89844-1.5234 1.5586-2.3438 1.9844-0.82422 0.41406-1.7344 0.625-2.7344 0.625-1.7617 0-3.1055-0.53906-4.0312-1.625-0.92969-1.082-1.3906-2.6602-1.3906-4.7344z"/>
  </symbol>
  <symbol id="s" overflow="visible">
   <path d="m14.312-14.828v3.7188c-1.043-0.4375-2.0547-0.76562-3.0312-0.98438-0.98047-0.21875-1.9023-0.32812-2.7656-0.32812-0.92969 0-1.6211 0.11719-2.0781 0.34375-0.44922 0.23047-0.67188 0.58984-0.67188 1.0781 0 0.38672 0.17188 0.68359 0.51562 0.89062 0.34375 0.21094 0.95703 0.36719 1.8438 0.46875l0.85938 0.125c2.5078 0.32422 4.1953 0.85156 5.0625 1.5781 0.86328 0.73047 1.2969 1.8711 1.2969 3.4219 0 1.6367-0.60547 2.8672-1.8125 3.6875-1.1992 0.8125-2.9922 1.2188-5.375 1.2188-1.0234 0-2.0742-0.078125-3.1562-0.23438-1.0742-0.15625-2.1797-0.39453-3.3125-0.71875v-3.7188c0.96875 0.48047 1.9609 0.83984 2.9844 1.0781 1.0312 0.23047 2.0781 0.34375 3.1406 0.34375 0.95703 0 1.6758-0.12891 2.1562-0.39062 0.47656-0.26953 0.71875-0.66406 0.71875-1.1875 0-0.4375-0.16797-0.75781-0.5-0.96875-0.33594-0.21875-0.99609-0.38281-1.9844-0.5l-0.85938-0.10938c-2.1797-0.26953-3.7031-0.77344-4.5781-1.5156-0.875-0.73828-1.3125-1.8594-1.3125-3.3594 0-1.625 0.55078-2.8281 1.6562-3.6094 1.1133-0.78906 2.8203-1.1875 5.125-1.1875 0.89453 0 1.8359 0.074219 2.8281 0.21875 1 0.13672 2.082 0.35156 3.25 0.64062z"/>
  </symbol>
  <symbol id="r" overflow="visible">
   <path d="m12.422-21.281v3.2188h-2.7031c-0.6875 0-1.1719 0.125-1.4531 0.375-0.27344 0.25-0.40625 0.6875-0.40625 1.3125v1.0625h4.1875v3.5h-4.1875v11.812h-4.8906v-11.812h-2.4375v-3.5h2.4375v-1.0625c0-1.6641 0.46094-2.8984 1.3906-3.7031 0.92578-0.80078 2.3672-1.2031 4.3281-1.2031z"/>
  </symbol>
  <symbol id="q" overflow="visible">
   <path d="m16.547-12.766c0.61328-0.94531 1.3477-1.6719 2.2031-2.1719 0.85156-0.5 1.7891-0.75 2.8125-0.75 1.7578 0 3.0977 0.54688 4.0156 1.6406 0.92578 1.0859 1.3906 2.6562 1.3906 4.7188v9.3281h-4.9219v-7.9844-0.35938c0.007813-0.13281 0.015625-0.32031 0.015625-0.5625 0-1.082-0.16406-1.8633-0.48438-2.3438-0.3125-0.48828-0.82422-0.73438-1.5312-0.73438-0.92969 0-1.6484 0.38672-2.1562 1.1562-0.51172 0.76172-0.77344 1.8672-0.78125 3.3125v7.5156h-4.9219v-7.9844c0-1.6953-0.14844-2.7852-0.4375-3.2656-0.29297-0.48828-0.8125-0.73438-1.5625-0.73438-0.9375 0-1.6641 0.38672-2.1719 1.1562-0.51172 0.76172-0.76562 1.8594-0.76562 3.2969v7.5312h-4.9219v-15.312h4.9219v2.2344c0.60156-0.86328 1.2891-1.5156 2.0625-1.9531 0.78125-0.4375 1.6406-0.65625 2.5781-0.65625 1.0625 0 2 0.25781 2.8125 0.76562 0.8125 0.51172 1.4258 1.2305 1.8438 2.1562z"/>
  </symbol>
  <symbol id="p" overflow="visible">
   <path d="m2.5781-20.406h5.875l7.4219 14v-14h4.9844v20.406h-5.875l-7.4219-14v14h-4.9844z"/>
  </symbol>
  <symbol id="o" overflow="visible">
   <path d="m2.5781-20.406h8.7344c2.5938 0 4.582 0.57812 5.9688 1.7344 1.3945 1.1484 2.0938 2.7891 2.0938 4.9219 0 2.1367-0.69922 3.7812-2.0938 4.9375-1.3867 1.1562-3.375 1.7344-5.9688 1.7344h-3.4844v7.0781h-5.25zm5.25 3.8125v5.7031h2.9219c1.0195 0 1.8047-0.25 2.3594-0.75 0.5625-0.5 0.84375-1.2031 0.84375-2.1094 0-0.91406-0.28125-1.6172-0.84375-2.1094-0.55469-0.48828-1.3398-0.73438-2.3594-0.73438z"/>
  </symbol>
  <symbol id="n" overflow="visible">
   <path d="m2.3594-15.312h4.8906v15.031c0 2.0508-0.49609 3.6172-1.4844 4.7031-0.98047 1.082-2.4062 1.625-4.2812 1.625h-2.4219v-3.2188h0.85938c0.92578 0 1.5625-0.21094 1.9062-0.625 0.35156-0.41797 0.53125-1.2461 0.53125-2.4844zm0-5.9688h4.8906v4h-4.8906z"/>
  </symbol>
  <symbol id="m" overflow="visible">
   <path d="m14.719-14.828v3.9844c-0.65625-0.45703-1.3242-0.79688-2-1.0156-0.66797-0.21875-1.3594-0.32812-2.0781-0.32812-1.3672 0-2.4336 0.40234-3.2031 1.2031-0.76172 0.79297-1.1406 1.9062-1.1406 3.3438 0 1.4297 0.37891 2.543 1.1406 3.3438 0.76953 0.79297 1.8359 1.1875 3.2031 1.1875 0.75781 0 1.4844-0.10938 2.1719-0.32812 0.6875-0.22656 1.3203-0.56641 1.9062-1.0156v4c-0.76172 0.28125-1.5391 0.48828-2.3281 0.625-0.78125 0.14453-1.5742 0.21875-2.375 0.21875-2.7617 0-4.9219-0.70703-6.4844-2.125-1.5547-1.4141-2.3281-3.3828-2.3281-5.9062 0-2.5312 0.77344-4.5039 2.3281-5.9219 1.5625-1.4141 3.7227-2.125 6.4844-2.125 0.80078 0 1.5938 0.074219 2.375 0.21875 0.78125 0.13672 1.5547 0.35156 2.3281 0.64062z"/>
  </symbol>
 </defs>
 <g>
  <path d="m465.08 93.574c4.6406 0 8.4023-3.7578 8.4023-8.3984v-15.512c0-4.6406-3.7617-8.3984-8.4023-8.3984-4.6367 0-8.3984 3.7578-8.3984 8.3984v15.512c0 2.2266 0.88672 4.3633 2.4609 5.9414 1.5742 1.5742 3.7109 2.457 5.9375 2.457z"/>
  <path d="m418.04 94.359c1.4922 2.6094 4.2734 4.2148 7.2812 4.1992 1.4609-0.003906 2.8945-0.41016 4.1445-1.1758 3.9062-2.2695 5.2773-7.25 3.0781-11.199l-4.8711-8.5117c-2.3203-4.0195-7.4609-5.3984-11.48-3.0781-4.0195 2.3164-5.3984 7.457-3.0781 11.477z"/>
  <path d="m400.4 112-8.457-4.8711h0.003906c-1.9336-1.3555-4.3438-1.8359-6.6445-1.3242-2.3047 0.51172-4.2852 1.9688-5.4609 4.0117-1.1758 2.043-1.4375 4.4883-0.72266 6.7383 0.71484 2.2461 2.3398 4.0898 4.4844 5.0781l8.457 4.9297-0.003906-0.003906c1.2852 0.72266 2.7305 1.1094 4.2031 1.1211 3.793-0.019532 7.1016-2.582 8.0742-6.2539 0.96875-3.668-0.64453-7.5312-3.9336-9.4258z"/>
  <path d="m507.25 217.05c-1.0234-2.0859-2.8711-3.6562-5.0977-4.332-2.2266-0.67578-4.6367-0.39844-6.6484 0.76953-2.0156 1.1641-3.4531 3.1133-3.9766 5.3828-0.52344 2.2695-0.082032 4.6523 1.2188 6.582l4.8711 8.5117h0.003907c1.5 2.6016 4.2773 4.2031 7.2773 4.1992 1.4805-0.007813 2.9336-0.41406 4.2031-1.1758 3.8828-2.2891 5.2461-7.2461 3.0781-11.199z"/>
  <path d="m541.8 189.73-8.457-4.9258c-1.9297-1.3008-4.3125-1.7422-6.582-1.2227-2.2656 0.52344-4.2148 1.9609-5.3828 3.9766-1.168 2.0156-1.4453 4.4219-0.76953 6.6484s2.2461 4.0742 4.3359 5.1016l8.457 4.9297-0.003906-0.003906c1.2773 0.74219 2.7266 1.1289 4.2031 1.1211 3.8047 0.003907 7.1367-2.5508 8.1211-6.2266s-0.625-7.5547-3.9219-9.4531z"/>
  <path d="m391.95 191.63-8.3438 4.8711c-4.0234 2.3203-5.4023 7.4609-3.082 11.48 2.3203 4.0195 7.4609 5.3984 11.48 3.0781l8.3984-4.8711c4.0234-2.3203 5.4023-7.457 3.082-11.48-2.3203-4.0195-7.4609-5.3984-11.48-3.0781z"/>
  <path d="m429.46 220.75c-3.9531-2.168-8.9141-0.80469-11.199 3.0781l-4.9297 8.5117c-2.1055 3.9609-0.75391 8.875 3.0781 11.199 1.2852 0.72266 2.7305 1.1094 4.2031 1.1211 3 0 5.7773-1.5977 7.2773-4.1992l4.8711-8.5117h0.003906c2.1289-4.0117 0.66016-8.9883-3.3047-11.199z"/>
  <path d="m534.07 127.68c1.4727-0.019532 2.9141-0.40625 4.2031-1.1211l8.457-4.9297-0.003907 0.003906c2.0898-1.0273 3.6602-2.875 4.3359-5.1016s0.39844-4.6328-0.76953-6.6484c-1.168-2.0156-3.1172-3.4531-5.3828-3.9766-2.2695-0.52344-4.6523-0.078125-6.582 1.2227l-8.457 4.8711c-3.2969 1.8984-4.9062 5.7773-3.9219 9.4531s4.3164 6.2305 8.1211 6.2266z"/>
  <path d="m514.02 74.367c-1.9297-1.1133-4.2227-1.418-6.3789-0.83984-2.1523 0.57812-3.9883 1.9883-5.1016 3.9219l-4.9297 8.5117h0.003907c-2.3203 4.0195-0.94141 9.1602 3.0781 11.48 4.0195 2.3164 9.1602 0.9375 11.48-3.082l4.9297-8.5117c2.2891-4.0234 0.91406-9.1406-3.082-11.48z"/>
  <path d="m391.16 167.5c4.6406 0 8.3984-3.7617 8.3984-8.3984 0-4.6406-3.7578-8.4023-8.3984-8.4023h-15.457c-4.6367 0-8.3984 3.7617-8.3984 8.4023 0 4.6367 3.7617 8.3984 8.3984 8.3984z"/>
  <path d="m465.08 224.62c-4.6367 0-8.3984 3.7578-8.3984 8.3984v15.512c0 4.6406 3.7617 8.4023 8.3984 8.4023 4.6406 0 8.4023-3.7617 8.4023-8.4023v-15.512c0-4.6406-3.7617-8.3984-8.4023-8.3984z"/>
  <path d="m554.51 150.7h-15.512c-4.6406 0-8.3984 3.7617-8.3984 8.4023 0 4.6367 3.7578 8.3984 8.3984 8.3984h15.512c4.6406 0 8.3984-3.7617 8.3984-8.3984 0-4.6406-3.7578-8.4023-8.3984-8.4023z"/>
  <path d="m471.07 145.6v-34.219c0-4.6367-3.7578-8.3984-8.3984-8.3984s-8.3984 3.7617-8.3984 8.3984v34.219c-5.0547 3.3125-7.332 9.5508-5.6016 15.344l-17.695 18.031c-2.3672 2.4141-3.0547 6.0117-1.7461 9.1289 1.3086 3.1172 4.3555 5.1484 7.7383 5.1523 2.418-0.011718 4.7188-1.0508 6.3281-2.8594l18.703-19.207h0.44922c6.0938-0.039062 11.492-3.9414 13.441-9.7188 1.9453-5.7773 0.011719-12.152-4.8203-15.871z"/>
  <path d="m589.29 159.1c-0.054687-38.609-18.066-74.992-48.734-98.445-30.668-23.453-70.5-31.305-107.77-21.242s-67.746 36.891-82.445 72.59c-3.8008-1.0156-7.6523-1.8359-11.535-2.4648-12.738-2.25-25.824 1.2109-35.785 9.4648-2.1055 1.8633-3.9883 3.9688-5.6016 6.2734-1.6289-2.293-3.5078-4.3945-5.5977-6.2734-9.9375-8.2578-23.016-11.703-35.727-9.4062-41.945 5.207-49.617 27.664-51.016 36.68h-0.003907c-4.2773 1.1055-8.4727 2.5273-12.543 4.2539-21.449 9.0156-25.93 30.742-25.09 46.648h0.003906c-15.805 6.0352-28.918 17.539-36.961 32.426-6.0859 13.078-7.2383 27.914-3.25 41.773-10.75 10.191-21.84 30.242-13.605 59.023 1.4805 5.1328 3.6289 10.043 6.3828 14.617-7.0039 15.414-8.5859 32.742-4.4805 49.168 4.1523 13.453 13.074 24.922 25.09 32.258 0 22.398 9.4062 56.391 44.801 67.199h-0.003907c4.8281 9.6211 12.281 17.68 21.496 23.242 9.2188 5.5586 19.824 8.3945 30.586 8.1719h2.5742c22.977 0.15234 44.434-11.441 56.898-30.742 12.453 19.281 33.887 30.875 56.84 30.742h2.6328c10.766 0.21094 21.371-2.6367 30.59-8.2031 9.2148-5.5703 16.668-13.637 21.488-23.266 35.336-10.641 44.801-44.801 44.801-67.199v-0.003907c12.008-7.2891 20.93-18.723 25.086-32.145 4.1055-16.441 2.5273-33.789-4.4766-49.223 2.7344-4.5742 4.8633-9.4883 6.3281-14.617 5.2266-15.867 3.5391-33.203-4.6484-47.766 30.953-2.6719 59.785-16.832 80.824-39.695 21.039-22.863 32.758-52.773 32.855-83.84zm-350 343.56c-10.105 0.79688-20.062-2.793-27.328-9.8555 9.125-2.4102 17.43-7.2422 24.035-13.984 6.6055-6.7422 11.262-15.148 13.484-24.32 5.7148-0.41406 11.355-1.5234 16.801-3.3047 5.8906-1.9023 9.125-8.2188 7.2227-14.113-1.9023-5.8906-8.2188-9.125-14.113-7.2227-8.0039 3.4609-17.117 3.2773-24.977-0.50391-6.4922-4.7109-10.988-11.684-12.598-19.543-1.0898-6.0703-6.8828-10.117-12.957-9.0547-6.0742 1.0664-10.145 6.8398-9.1055 12.918 2.7617 14.152 10.992 26.648 22.902 34.777 1.4961 0.88281 3.0508 1.668 4.6484 2.3516-6.3281 20.215-26.602 22.062-32.145 22.398-35.559-8.3984-32.09-50.008-31.922-51.801l0.72656-7.4492-6.6641-3.5273 0.003907 0.003906c-9.5781-4.3242-16.922-12.441-20.273-22.402-2.1797-8.3008-2.0078-17.047 0.50391-25.254 9.7656 5.8438 20.93 8.9414 32.312 8.957 1.6992 0.089844 3.3984 0.089844 5.0977 0 6.1836-0.63281 10.684-6.1602 10.051-12.348-0.63281-6.1836-6.1641-10.684-12.348-10.051-1.1758 0-29.566 2.6875-37.465-24.863-7.8945-27.551 8.8477-38.137 10.641-39.199l8.1758-4.7617v-0.50391c6.6523-3.6445 14.453-4.5859 21.785-2.6328 5.8906 1.9023 12.207-1.332 14.109-7.2227 1.9023-5.8906-1.332-12.211-7.2227-14.113-11.52-3.4844-23.91-2.6875-34.887 2.2422-0.78125-6.4648 0.24609-13.016 2.9688-18.93 5.5195-9.9023 14.309-17.582 24.863-21.727 14.953-2.5742 26.543-0.50391 34.441 6.1602 14.055 11.816 14 35.055 14 35.504h-0.003906c0 6.0781 4.8438 11.047 10.922 11.199 2.9688 0 5.8203-1.1797 7.918-3.2812 2.1016-2.1016 3.2812-4.9492 3.2812-7.918 0-1.3984 0.44922-34.105-21.785-52.977-9.957-8.2031-22.488-12.645-35.391-12.543 0-7.7266 1.3438-18.93 11.199-23.184 28-11.703 36.008 2.2969 37.406 5.2656l0.003906-0.003906c2.1641 5.8008 8.6211 8.7461 14.418 6.582 2.7852-1.043 5.043-3.1445 6.2773-5.8477 1.2344-2.707 1.3438-5.7891 0.30469-8.5742-4.2852-9.1992-11.887-16.438-21.281-20.273-2.8711-1.1523-5.8555-1.9961-8.9023-2.5195 2.9688-4.4805 10.527-10.754 29.734-13.16 6.3555-1.3789 13 0.074219 18.199 3.9766 5.3008 5.6602 8.3984 13.031 8.7383 20.777v32.145c-5.1875-2.7734-10.93-4.3398-16.801-4.5938-6.168-0.28516-11.402 4.4727-11.703 10.641-0.15234 2.9727 0.88281 5.8828 2.8789 8.0859 1.9961 2.207 4.7891 3.5273 7.7578 3.6758 3.8164 0.48438 7.4336 1.9922 10.469 4.3555 3.0312 2.3633 5.375 5.5 6.7812 9.082l0.50391 0.83984v68.543c-9.4531-7.0312-21.344-9.9609-32.984-8.1172-6.1875 0.77344-10.574 6.4141-9.8008 12.598 0.77344 6.1875 6.4141 10.574 12.602 9.8008 23.801-2.9688 29.344 23.91 30.184 29.289v130.48c-1.3984 9.7422-8.9609 37.688-45.695 39.031zm217.56-114.58c-3.3516 9.9609-10.695 18.078-20.273 22.402l-6.6641 3.4727 0.72656 7.5039c0 1.793 3.7539 43.344-31.754 51.574-5.6016 0-25.871-1.9609-32.199-22.398h0.003906c1.5977-0.68359 3.1523-1.4688 4.6484-2.3516 11.91-8.1289 20.141-20.625 22.902-34.777 0.10156-5.5391-3.8633-10.324-9.3281-11.246-5.4648-0.92578-10.781 2.2852-12.512 7.5508-1.6133 7.8438-6.082 14.809-12.543 19.543-7.8789 3.7773-17.008 3.9609-25.031 0.50391-5.8906-1.9961-12.285 1.1641-14.281 7.0547-1.9922 5.8945 1.1641 12.285 7.0586 14.281 5.4453 1.7773 11.086 2.8867 16.797 3.3047 2.2227 9.1719 6.8828 17.578 13.488 24.32 6.6016 6.7422 14.906 11.574 24.035 13.984-7.2227 7.0977-17.184 10.699-27.273 9.8555-36.734-1.3438-44.352-29.289-45.863-39.199v-130.65c0.95312-5.6016 6.6641-32.031 30.238-29.121 6.1875 0.75781 11.816-3.6406 12.574-9.8281 0.75781-6.1836-3.6445-11.812-9.8281-12.57-11.641-1.8438-23.531 1.0859-32.984 8.1172v-65.406c1.1875-1.0547 2.1094-2.3828 2.6875-3.8633 1.4336-3.5586 3.7852-6.6719 6.8164-9.0234 3.0273-2.3516 6.6289-3.8555 10.43-4.3594 2.9727-0.14844 5.7656-1.4688 7.7617-3.6758 1.9961-2.2031 3.0312-5.1133 2.8789-8.0859-0.35938-6.1445-5.6133-10.848-11.758-10.527-6.6836 0.3125-13.168 2.3555-18.816 5.9336v-33.32c0.3125-7.8711 3.3867-15.383 8.6797-21.223 5.1953-3.9609 11.863-5.4531 18.254-4.0859 2.8008 0.39062 5.6016 0.83984 7.9531 1.3984-1.8242 8.4648-2.7461 17.102-2.7422 25.762-2.2891 2.6797-4.1758 5.6797-5.6016 8.9023-2.2188 5.6289 0.4375 12 5.9922 14.391 0.625 0.28906 1.2812 0.49609 1.9609 0.61719 2.6406 13.496 7.5039 26.457 14.391 38.359-6.4453 11.871-9.8867 25.137-10.023 38.641 0 2.9688 1.1797 5.8203 3.2812 7.918 2.0977 2.1016 4.9492 3.2812 7.918 3.2812 2.9727 0 5.8203-1.1797 7.9219-3.2812 2.0977-2.0977 3.2773-4.9492 3.2773-7.918 0.15234-5.8867 1.0938-11.727 2.8008-17.359 8.9414 9.8281 19.352 18.219 30.855 24.863 0.03125 1.1367 0.19922 2.2656 0.50391 3.3594 1.4883 4.6484 5.8164 7.7969 10.695 7.7852 1.1641 0 2.3164-0.1875 3.418-0.55859 2.1445-0.64063 4.3672-0.98047 6.6094-1.0078 5.3477 1.8281 10.809 3.3047 16.352 4.4219l6.7188 4.0898c1.9609 1.1758 18.48 12.266 10.754 39.199-7.7266 26.938-34.441 25.09-37.52 24.809h-0.003906c-6.1836-0.62109-11.699 3.8945-12.32 10.078-0.61719 6.1875 3.8945 11.703 10.082 12.32 1.6953 0.089844 3.3984 0.089844 5.0977 0 11.383-0.0625 22.539-3.1758 32.309-9.0156 2.4961 8.2148 2.6484 16.957 0.44922 25.254zm8.2305-127.23c-27.004 0-52.902-10.727-71.992-29.824-19.094-19.098-29.82-44.996-29.812-72.004 0.003906-27.004 10.738-52.898 29.836-71.988 19.102-19.09 45.004-29.809 72.008-29.801 27.004 0.011719 52.898 10.75 71.984 29.852 19.086 19.105 29.801 45.008 29.785 72.016-0.027344 26.984-10.766 52.859-29.855 71.934-19.086 19.078-44.965 29.801-71.953 29.816z"/>
  <path d="m272.16 334.43c-9.3945-2.8438-19.547-1.625-28 3.3594-1.0195-1.8125-2.1602-3.5508-3.418-5.207-5.4844-8.1055-13.664-14.004-23.086-16.648s-19.477-1.8672-28.375 2.1992c-5.3867 2.7695-7.5938 9.3164-4.9844 14.785 2.6484 5.543 9.2695 7.9141 14.84 5.3164 2.1836-1.0625 13.719-5.6016 23.742 7.8398 2.75 3.6719 4.0078 8.25 3.5195 12.812-0.48828 4.5586-2.6836 8.7656-6.1523 11.773-4.5 4.2109-4.75 11.27-0.55859 15.793 4.2148 4.5 11.273 4.75 15.793 0.55859 5.543-5.3164 9.6641-11.941 11.984-19.262 0.89062-1.0078 1.5898-2.1641 2.0703-3.418 2.4102-6.875 9.8906-10.539 16.801-8.2305 5.8828 1.2812 11.727-2.3125 13.23-8.1406 1.5078-5.8281-1.8633-11.805-7.6289-13.531z"/>
  <path d="m404.66 318.14c-8.9023-4.0664-18.957-4.8438-28.379-2.1992s-17.602 8.543-23.086 16.648c-1.2539 1.6562-2.3945 3.3945-3.4141 5.207-8.4531-4.9844-18.609-6.2031-28-3.3594-5.7695 1.7266-9.1406 7.7031-7.6328 13.531 1.5039 5.8281 7.3516 9.4219 13.23 8.1406 3.3359-1.1367 6.9844-0.89453 10.137 0.67188 3.1562 1.5664 5.5547 4.3281 6.6641 7.6719 0.5 1.2227 1.2227 2.3398 2.1289 3.3047 2.2578 7.3359 6.3672 13.969 11.926 19.262 2.0547 1.9219 4.75 3 7.5625 3.0234 3.1719 0.023438 6.2031-1.3008 8.3438-3.6406 4.25-4.457 4.1016-11.516-0.33594-15.789-3.5117-2.9883-5.75-7.1992-6.2578-11.777-0.51172-4.5781 0.74609-9.1797 3.5117-12.863 10.023-13.215 21.449-8.9023 23.688-7.8945v-0.003907c5.4688 2.332 11.801-0.011718 14.434-5.3359 2.6328-5.3281 0.64844-11.781-4.5195-14.711z"/>
  <use x="70" y="644" xlink:href="#v"/>
  <use x="90.550781" y="644" xlink:href="#d"/>
  <use x="104.359375" y="644" xlink:href="#a"/>
  <use x="123.347656" y="644" xlink:href="#g"/>
  <use x="142.242188" y="644" xlink:href="#c"/>
  <use x="155.628906" y="644" xlink:href="#a"/>
  <use x="174.617188" y="644" xlink:href="#f"/>
  <use x="204.410156" y="644" xlink:href="#l"/>
  <use x="224.453125" y="644" xlink:href="#k"/>
  <use x="252.453125" y="644" xlink:href="#j"/>
  <use x="274.121094" y="644" xlink:href="#u"/>
  <use x="283.71875" y="644" xlink:href="#f"/>
  <use x="303.761719" y="644" xlink:href="#g"/>
  <use x="322.65625" y="644" xlink:href="#e"/>
  <use x="352.335938" y="644" xlink:href="#t"/>
  <use x="372.503906" y="644" xlink:href="#c"/>
  <use x="385.890625" y="644" xlink:href="#b"/>
  <use x="405.125" y="644" xlink:href="#e"/>
  <use x="425.058594" y="644" xlink:href="#a"/>
  <use x="444.046875" y="644" xlink:href="#i"/>
  <use x="463.984375" y="644" xlink:href="#b"/>
  <use x="483.21875" y="644" xlink:href="#h"/>
  <use x="503.152344" y="644" xlink:href="#s"/>
  <use x="519.820312" y="644" xlink:href="#a"/>
  <use x="70" y="672" xlink:href="#r"/>
  <use x="82.183594" y="672" xlink:href="#d"/>
  <use x="95.992188" y="672" xlink:href="#b"/>
  <use x="115.226562" y="672" xlink:href="#q"/>
  <use x="154.152344" y="672" xlink:href="#c"/>
  <use x="167.535156" y="672" xlink:href="#i"/>
  <use x="187.46875" y="672" xlink:href="#a"/>
  <use x="216.207031" y="672" xlink:href="#p"/>
  <use x="239.640625" y="672" xlink:href="#b"/>
  <use x="258.878906" y="672" xlink:href="#h"/>
  <use x="278.8125" y="672" xlink:href="#e"/>
  <use x="308.492188" y="672" xlink:href="#o"/>
  <use x="329.015625" y="672" xlink:href="#d"/>
  <use x="342.820312" y="672" xlink:href="#b"/>
  <use x="362.058594" y="672" xlink:href="#n"/>
  <use x="371.65625" y="672" xlink:href="#a"/>
  <use x="390.648438" y="672" xlink:href="#m"/>
  <use x="407.242188" y="672" xlink:href="#c"/>
 </g>
</svg>
